<svg width="20" height="20" viewBox="0 0 20 20" fill="none" xmlns="http://www.w3.org/2000/svg">
<path fill-rule="evenodd" clip-rule="evenodd" d="M17.6047 14.7011L15.0773 13.1968C14.784 13.022 14.4408 12.9501 14.102 12.9922C13.7632 13.0344 13.4481 13.1883 13.2066 13.4296C12.9035 13.7324 12.6624 13.9624 12.4901 14.1137C12.4625 14.1405 12.4292 14.1608 12.3927 14.1729C12.3562 14.1851 12.3174 14.1889 12.2792 14.184C10.3172 14.03 7.61474 11.3277 7.46044 9.36557C7.45563 9.32734 7.45944 9.28851 7.47161 9.25194C7.48378 9.21538 7.50399 9.18201 7.53075 9.15428C7.6815 8.98241 7.91154 8.74139 8.21466 8.43787C8.45596 8.19634 8.60986 7.88127 8.65202 7.54247C8.69419 7.20367 8.62221 6.86048 8.44747 6.56717L6.94322 4.03983C6.74997 3.71429 6.44318 3.47169 6.08186 3.35869C5.72054 3.2457 5.3302 3.27028 4.98591 3.42772L2.54341 4.54209C2.24509 4.67719 1.99798 4.90443 1.83842 5.19041C1.67887 5.4764 1.61528 5.80603 1.657 6.13084C2.07193 9.43975 3.73556 12.6973 6.34142 15.3031C8.94728 17.909 12.2047 19.5726 15.5136 19.9875C15.5782 19.9957 15.6432 19.9998 15.7082 20C16.0024 20.0002 16.2905 19.9154 16.5377 19.756C16.785 19.5966 16.981 19.3692 17.1023 19.1011L18.2168 16.6585C18.3744 16.3143 18.399 15.9238 18.286 15.5625C18.173 15.2011 17.9303 14.8943 17.6047 14.7011ZM10.8902 10.6187C10.3356 10.1738 10.0172 9.5453 10.0172 8.89412C10.0171 8.24295 10.3356 7.61444 10.8902 7.16952C11.4125 6.75077 12.0992 6.51983 12.8234 6.51991C13.3685 6.51699 13.9049 6.65631 14.3797 6.92412V0.624984C14.3797 0.502599 14.4156 0.382907 14.483 0.280759C14.5505 0.17861 14.6464 0.0984999 14.7589 0.0503667C14.8714 0.0022335 14.9956 -0.0118044 15.116 0.00999444C15.2365 0.0317933 15.3478 0.0884696 15.4363 0.172992C17.4559 2.1035 19.4969 4.66561 17.3363 7.3687C17.2851 7.43282 17.2217 7.48622 17.1498 7.52585C17.078 7.56548 16.999 7.59056 16.9174 7.59967C16.8358 7.60877 16.7532 7.60172 16.6744 7.57891C16.5955 7.5561 16.5219 7.51799 16.4578 7.46674C16.3937 7.4155 16.3403 7.35212 16.3007 7.28024C16.261 7.20835 16.236 7.12937 16.2269 7.04779C16.2178 6.96621 16.2248 6.88364 16.2476 6.80479C16.2704 6.72594 16.3085 6.65235 16.3598 6.58823C16.9836 5.80776 17.1513 5.05186 16.8875 4.2101C16.6977 3.60463 16.2833 2.93311 15.6297 2.17725V8.88315C15.6297 8.88787 15.629 8.89252 15.6289 8.89721C15.6289 8.90545 15.6297 8.91397 15.6297 8.9226C15.6297 10.2383 14.3969 11.2687 12.8234 11.2687C12.0992 11.2687 11.4125 11.0378 10.8902 10.6187Z" fill="white"/>
</svg>
