<svg width="20" height="20" viewBox="0 0 20 20" fill="none" xmlns="http://www.w3.org/2000/svg">
<path d="M4.81131 4.14793C5.35228 4.12258 6.0014 4.1144 6.5356 4.17582C7.18832 4.25088 7.37787 5.17449 7.56502 5.70237L8.33556 7.86891L10.0362 12.6589C10.3332 13.4947 10.6377 14.3309 10.923 15.1708C10.994 15.3798 10.9531 15.6559 10.7431 15.7703C10.5548 15.8729 10.3434 15.8656 10.1351 15.8626C9.76888 15.8542 9.39627 15.8681 9.03078 15.8625C8.5015 15.8613 8.50121 15.5452 8.34072 15.1774C8.19808 14.8506 8.05693 14.2107 7.88119 13.9242C7.5613 13.886 6.77052 13.908 6.4155 13.9085C5.41605 13.9082 4.30507 13.8842 3.31248 13.9177C3.05447 14.4604 2.93449 15.1011 2.65066 15.6314C2.5784 15.7745 2.33615 15.8874 2.17808 15.8608C1.57862 15.76 -0.11194 16.2409 0.300364 15.0803C0.544173 14.394 0.76593 13.7612 0.999583 13.1042L2.36052 9.27789L3.30986 6.607C3.47513 6.14073 3.88193 4.80686 4.14359 4.46756C4.31291 4.24801 4.5497 4.18272 4.81131 4.14793ZM4.19591 11.4515C4.65566 11.4348 5.16984 11.4442 5.63425 11.4444C6.02697 11.444 6.6288 11.4272 7.00654 11.4519C6.52767 10.1988 6.118 8.90227 5.64072 7.6469C5.6233 7.60104 5.6164 7.5877 5.57392 7.56481L4.63537 10.1918C4.5308 10.4838 4.25371 11.1994 4.19591 11.4515Z" fill="black"/>
<path d="M17.796 7.60097C17.8421 7.36085 17.9558 7.07015 18.2523 7.07238C18.5677 7.06423 19.6027 6.93419 19.7093 7.35087C19.8019 7.71279 19.763 8.4698 19.7628 8.87202L19.7634 11.3656L19.7655 13.8374C19.7667 14.2823 19.7728 14.7382 19.7669 15.1805C19.7577 15.8661 19.3744 15.8764 18.8136 15.8692C18.5428 15.8657 18.2091 15.9008 17.9716 15.7382C17.8964 15.6867 17.8004 15.4263 17.7271 15.3885C17.5908 15.4109 17.1485 15.6224 16.9465 15.6884C15.6536 16.087 14.263 15.7501 13.2473 14.8599C12.5502 14.2312 11.9996 13.21 11.9622 12.2612C11.9075 10.8771 11.9089 9.52583 12.8789 8.42743C13.587 7.6271 14.5807 7.13628 15.6467 7.06033C16.342 7.02767 17.1998 7.24019 17.796 7.60097ZM16.1187 13.3776C16.5011 13.3059 16.8394 13.085 17.0588 12.7636C17.3516 12.3376 17.3168 11.9191 17.3218 11.424C17.3242 11.1885 17.3267 10.9148 17.2825 10.6842C17.2116 10.3065 16.9931 9.97263 16.6755 9.75634C16.3388 9.5287 15.9544 9.48966 15.5586 9.53878C15.1445 9.64243 14.8243 9.83017 14.5996 10.2073C14.5142 10.3518 14.4543 10.51 14.4224 10.6748C14.3665 10.9597 14.3599 12.0183 14.4273 12.2845C14.5229 12.6682 14.7674 12.998 15.1067 13.2009C15.3933 13.3707 15.7932 13.4493 16.1187 13.3776Z" fill="black"/>
</svg>
