<svg width="48" height="48" viewBox="0 0 48 48" fill="none" xmlns="http://www.w3.org/2000/svg">
<g clip-path="url(#clip0_379_2404)">
<path d="M29.6842 11.2665C32.0126 11.0623 34.0671 12.7811 34.2772 15.109C34.4872 17.4369 32.7736 19.4957 30.4463 19.7117C28.1105 19.9284 26.0427 18.2073 25.8319 15.871C25.6211 13.5348 27.3474 11.4713 29.6842 11.2665Z" fill="#FC7304"/>
<path d="M0.273438 10.1821C0.674842 10.0377 1.08116 9.92266 1.48536 9.78948C6.0244 8.29394 10.7432 7.01008 15.1867 5.25391C13.3386 7.26972 11.7365 10.3785 11.2058 13.0629C10.512 16.4076 11.1995 19.8908 13.1121 22.7211C15.3065 25.9931 18.8408 28.1459 22.6778 28.8931C23.9749 29.1456 25.0099 29.1971 26.319 29.208C29.8545 29.2375 33.3913 28.5525 36.3639 26.5494C38.9824 24.7848 41.1431 21.9377 41.7381 18.7958C42.3973 15.3149 41.8363 11.5837 40.46 8.33725C40.18 7.67683 39.7409 6.76164 39.3451 6.17523C39.3933 6.00217 39.3734 5.85475 39.3654 5.67606C39.4664 5.62038 39.6323 5.67972 39.7985 5.69191C40.2613 5.8938 41.0988 6.43666 41.5326 6.72784C43.8505 8.28358 46.0022 10.302 47.0564 12.9396C48.046 15.3946 47.8266 18.2194 46.7521 20.611C45.7012 22.9505 44.0747 25.012 42.1133 26.6593C41.7888 26.9319 40.533 27.7472 40.3157 28.0283C39.9618 28.4862 39.7193 29.6539 39.4029 30.2009C38.4731 32.2138 37.2 34.0805 35.4943 35.5165C35.0703 35.8735 34.4915 36.1232 34.1489 36.5706C33.4809 37.5332 32.8223 38.5391 32.172 39.5121C30.959 41.3237 29.7312 43.1253 28.4885 44.9166C27.8914 45.7752 27.1812 46.8373 26.4671 47.5994C26.3255 47.7503 25.9157 47.89 25.733 48.0011H24.393C23.8903 47.7864 23.2045 47.6894 22.6916 47.5028C21.2217 46.9684 18.3331 45.4873 17.6888 44.0117C16.4266 41.1205 16.8322 37.4951 16.6577 34.4295C13.8499 37.8417 7.21203 40.6277 3.18993 42.4614C2.26056 42.8852 1.1996 43.244 0.278984 43.6792C0.336449 42.5605 0.281786 40.8999 0.281741 39.7492L0.281585 31.7393L0.273438 10.1821Z" fill="#FC7304"/>
<path d="M28.4238 0H31.3846C31.7329 0.144338 32.1739 0.167999 32.547 0.228956C33.1981 0.335319 34.8149 0.589945 35.2756 1.02512C36.0403 1.74735 35.6913 8.57325 35.6365 9.92067C35.6118 10.5296 35.5373 11.1413 35.5617 11.7507C34.0216 10.627 32.8685 9.8685 30.9195 9.64327C27.7341 9.27103 24.7117 11.3339 24.0286 14.4876C22.8345 20.0003 30.3966 23.351 34.3116 19.9402C37.2072 17.4176 37.7143 13.3327 37.8633 9.71423C37.8965 8.90836 37.7927 8.03897 37.8664 7.2487C38.4929 8.19947 38.9583 8.96217 39.3421 10.0768C40.5516 13.5895 40.5599 18.1308 39.0205 21.5306C38.8447 21.9188 38.4092 22.6643 38.1179 22.9603C36.4582 24.6472 33.8936 26.0437 31.6991 26.8291C28.1843 28.0872 24.4508 28.0366 21.0811 26.3818C17.9883 24.8652 14.6025 21.8167 13.5208 18.5121C10.7786 10.0523 18.7027 1.85413 26.6033 0.336634C27.1012 0.240995 27.9922 0.162059 28.4238 0Z" fill="#FC7304"/>
<path d="M38.4121 4.95898C38.6892 5.05798 39.5556 5.51947 39.799 5.69033C39.6328 5.67814 39.4669 5.6188 39.3659 5.67448C39.3739 5.85317 39.3938 6.00059 39.3456 6.17366C39.0907 5.73448 38.7424 5.34369 38.4121 4.95898Z" fill="#FC7304"/>
</g>
<defs>
<clipPath id="clip0_379_2404">
<rect width="48" height="48" fill="white"/>
</clipPath>
</defs>
</svg>
